<svg width="128" height="128" viewBox="0 0 128 128" fill="none" xmlns="http://www.w3.org/2000/svg">
<rect x="1.332" y="24.347" width="125.336" height="79.305" rx="15" fill="white"/>
<path d="M11.95 24.348C6.114 24.348 1.332 29.215 1.332 35.029V92.971C1.332 98.785 6.114 103.652 11.949 103.652H116.051C121.886 103.652 126.668 98.785 126.668 92.971V35.03C126.668 29.216 121.885 24.349 116.051 24.349H14.898L14.896 24.347H11.95V24.348ZM11.943 33.891H116.051C116.676 33.891 117.127 34.314 117.127 35.031V92.971C117.127 93.688 116.674 94.111 116.051 94.111H11.949C11.326 94.111 10.873 93.688 10.873 92.971V35.029C10.873 34.314 11.324 33.894 11.943 33.891V33.891Z" fill="black"/>
<path d="M20.721 84.1V43.9H32.42L44.117 58.68L55.81 43.9H67.506V84.1H55.81V61.044L44.116 75.824L32.418 61.044V84.1H20.722H20.721ZM93.825 84.1L76.28 64.591H87.977V43.9H99.675V64.59H111.373L93.825 84.1Z" fill="black"/>
</svg>
